<?xml version="1.0" encoding="UTF-8"?>
<svg width="57px" height="57px" viewBox="0 0 57 57" version="1.1" xmlns="http://www.w3.org/2000/svg"
  xmlns:xlink="http://www.w3.org/1999/xlink">
  <g id="twitter_icon" transform="translate(4.000000, 5.000000)" fill-rule="nonzero">
    <path
      d="M25.348,0.157 C11.748,0.157 0.723,11.184 0.723,24.782 C0.723,38.382 11.748,49.405 25.348,49.405 C38.948,49.405 49.971,38.382 49.971,24.782 C49.971,11.184 38.947,0.157 25.348,0.157 Z"
      id="Shape" fill="#000000"></path>
    <path
      d="M5,19 L5,32.6666667 L16.38775,32.6666667 L16.38775,34.9421667 L25.5,34.9421667 L25.5,32.6666667 L46,32.6666667 L46,19 L5,19 Z M16.38775,30.3843333 L14.11225,30.3843333 L14.11225,23.551 L11.831625,23.551 L11.831625,30.3843333 L7.280625,30.3843333 L7.280625,21.2772083 L16.38775,21.2772083 L16.38775,30.3843333 Z M23.2210833,30.3843333 L23.2210833,32.6666667 L18.668375,32.6666667 L18.668375,21.2772083 L27.780625,21.2772083 L27.780625,30.3860417 L23.2210833,30.3860417 L23.2210833,30.3843333 Z M43.7227917,30.3843333 L41.4507083,30.3843333 L41.4507083,23.551 L39.168375,23.551 L39.168375,30.3843333 L36.88775,30.3843333 L36.88775,23.551 L34.6156667,23.551 L34.6156667,30.3843333 L30.0527083,30.3843333 L30.0527083,21.2772083 L43.7227917,21.2772083 L43.7227917,30.3843333 Z M23.219375,23.5544167 L25.5,23.5544167 L25.5,28.1105417 L23.219375,28.1105417 L23.219375,23.5544167 Z"
      id="Shape" fill="#FFFFFF"></path>
  </g>
</svg>